<svg width="79" height="17" viewBox="0 0 79 17" fill="none" xmlns="http://www.w3.org/2000/svg">
<path d="M7.264 0.199999C8.752 0.199999 10.04 0.447999 11.128 0.943999C12.232 1.44 13.08 2.144 13.672 3.056C14.264 3.968 14.56 5.048 14.56 6.296C14.56 7.528 14.264 8.608 13.672 9.536C13.08 10.448 12.232 11.152 11.128 11.648C10.04 12.128 8.752 12.368 7.264 12.368H3.88V17H-0.0079999V0.199999H7.264ZM7.048 9.2C8.216 9.2 9.104 8.952 9.712 8.456C10.32 7.944 10.624 7.224 10.624 6.296C10.624 5.352 10.32 4.632 9.712 4.136C9.104 3.624 8.216 3.368 7.048 3.368H3.88V9.2H7.048ZM28.0398 17L24.7998 12.32H24.6078H21.2238V17H17.3358V0.199999H24.6078C26.0958 0.199999 27.3838 0.447999 28.4718 0.943999C29.5758 1.44 30.4238 2.144 31.0158 3.056C31.6078 3.968 31.9038 5.048 31.9038 6.296C31.9038 7.544 31.5998 8.624 30.9918 9.536C30.3998 10.432 29.5518 11.12 28.4478 11.6L32.2158 17H28.0398ZM27.9678 6.296C27.9678 5.352 27.6638 4.632 27.0558 4.136C26.4478 3.624 25.5598 3.368 24.3918 3.368H21.2238V9.224H24.3918C25.5598 9.224 26.4478 8.968 27.0558 8.456C27.6638 7.944 27.9678 7.224 27.9678 6.296ZM34.9842 0.199999H38.8722V17H34.9842V0.199999ZM58.1472 17L58.1232 6.92L53.1792 15.224H51.4272L46.5072 7.136V17H42.8592V0.199999H46.0752L52.3632 10.64L58.5552 0.199999H61.7472L61.7952 17H58.1472ZM78.7891 13.88V17H65.7811V0.199999H78.4771V3.32H69.6451V6.968H77.4451V9.992H69.6451V13.88H78.7891Z" fill="white"/>
</svg>
