<svg width="43" height="18" viewBox="0 0 43 18" fill="none" xmlns="http://www.w3.org/2000/svg">
<path d="M15.295 2.625C15.341 2.625 15.364 2.671 15.364 2.763C15.364 2.855 15.341 2.901 15.295 2.901C14.743 2.901 14.214 3.14633 13.708 3.637C13.202 4.12767 12.7957 4.787 12.489 5.615L8.234 16.977C8.21867 17.0383 8.13433 17.069 7.981 17.069C7.82767 17.069 7.74333 17.0383 7.728 16.977L1.863 4.534C1.587 3.982 1.311 3.57567 1.035 3.315C0.759 3.039 0.452333 2.901 0.115 2.901C0.069 2.901 0.046 2.855 0.046 2.763C0.046 2.671 0.069 2.625 0.115 2.625C0.345 2.625 0.506 2.63267 0.598 2.648C0.904667 2.67867 1.30333 2.694 1.794 2.694C3.11267 2.694 4.232 2.67867 5.152 2.648C5.39733 2.63267 5.704 2.625 6.072 2.625C6.118 2.625 6.141 2.671 6.141 2.763C6.141 2.855 6.118 2.901 6.072 2.901C5.612 2.901 5.25167 3.00067 4.991 3.2C4.74567 3.384 4.623 3.65233 4.623 4.005C4.623 4.26567 4.70733 4.58 4.876 4.948L9.062 13.872L7.981 15.758L11.845 5.546C11.9983 5.11667 12.075 4.74867 12.075 4.442C12.075 3.96667 11.9293 3.591 11.638 3.315C11.362 3.039 10.9557 2.901 10.419 2.901C10.373 2.901 10.35 2.855 10.35 2.763C10.35 2.671 10.373 2.625 10.419 2.625L11.546 2.648C12.19 2.67867 12.765 2.694 13.271 2.694C13.5623 2.694 13.9227 2.67867 14.352 2.648L15.295 2.625ZM15.4068 17C15.3608 17 15.3378 16.954 15.3378 16.862C15.3378 16.77 15.3608 16.724 15.4068 16.724C15.8821 16.724 16.2041 16.6167 16.3728 16.402C16.5414 16.172 16.6258 15.7503 16.6258 15.137V11.02C16.6258 10.4987 16.5721 10.123 16.4648 9.893C16.3574 9.663 16.1811 9.548 15.9358 9.548C15.7364 9.548 15.4528 9.63233 15.0848 9.801H15.0618C15.0004 9.801 14.9544 9.76267 14.9238 9.686C14.8931 9.594 14.9008 9.54033 14.9468 9.525L18.4198 7.915L18.4888 7.892C18.5654 7.892 18.6421 7.93033 18.7188 8.007C18.7954 8.08367 18.8338 8.15267 18.8338 8.214V8.72C18.8031 9.33333 18.7878 10.0847 18.7878 10.974V15.137C18.7878 15.7503 18.8721 16.172 19.0408 16.402C19.2248 16.6167 19.5544 16.724 20.0298 16.724C20.0758 16.724 20.0988 16.77 20.0988 16.862C20.0988 16.954 20.0758 17 20.0298 17C19.6311 17 19.3168 16.9923 19.0868 16.977L17.7068 16.954L16.3498 16.977C16.1198 16.9923 15.8054 17 15.4068 17ZM17.6148 5.615C17.1701 5.615 16.8251 5.49233 16.5798 5.247C16.3344 5.00167 16.2118 4.65667 16.2118 4.212C16.2118 3.81333 16.3344 3.499 16.5798 3.269C16.8404 3.02367 17.1854 2.901 17.6148 2.901C18.0441 2.901 18.3738 3.016 18.6038 3.246C18.8338 3.476 18.9488 3.798 18.9488 4.212C18.9488 4.65667 18.8338 5.00167 18.6038 5.247C18.3738 5.49233 18.0441 5.615 17.6148 5.615ZM21.3568 17C21.3261 17 21.3108 16.954 21.3108 16.862C21.3108 16.77 21.3261 16.724 21.3568 16.724C21.8321 16.724 22.1541 16.6167 22.3228 16.402C22.5068 16.172 22.5988 15.7503 22.5988 15.137L22.6218 3.453C22.6218 2.91633 22.5681 2.533 22.4608 2.303C22.3688 2.073 22.2001 1.958 21.9548 1.958C21.7554 1.958 21.4641 2.04233 21.0808 2.211H21.0578C21.0118 2.211 20.9658 2.17267 20.9198 2.096C20.8891 2.004 20.8891 1.95033 20.9198 1.935L24.3008 0.347999L24.3928 0.324999C24.4694 0.324999 24.5538 0.363333 24.6458 0.439999C24.7378 0.501333 24.7838 0.562666 24.7838 0.624V15.137C24.7838 15.7503 24.8681 16.172 25.0368 16.402C25.2054 16.6167 25.5274 16.724 26.0028 16.724C26.0641 16.724 26.0948 16.77 26.0948 16.862C26.0948 16.954 26.0641 17 26.0028 17C25.6194 17 25.3128 16.9923 25.0828 16.977L23.6798 16.954L22.2998 16.977C22.0698 16.9923 21.7554 17 21.3568 17ZM27.5111 17C27.4804 17 27.4651 16.954 27.4651 16.862C27.4651 16.77 27.4804 16.724 27.5111 16.724C27.9864 16.724 28.3084 16.6167 28.4771 16.402C28.6611 16.172 28.7531 15.7503 28.7531 15.137L28.7761 3.453C28.7761 2.91633 28.7224 2.533 28.6151 2.303C28.5231 2.073 28.3544 1.958 28.1091 1.958C27.9097 1.958 27.6184 2.04233 27.2351 2.211H27.2121C27.1661 2.211 27.1201 2.17267 27.0741 2.096C27.0434 2.004 27.0434 1.95033 27.0741 1.935L30.4551 0.347999L30.5471 0.324999C30.6237 0.324999 30.7081 0.363333 30.8001 0.439999C30.8921 0.501333 30.9381 0.562666 30.9381 0.624V15.137C30.9381 15.7503 31.0224 16.172 31.1911 16.402C31.3597 16.6167 31.6817 16.724 32.1571 16.724C32.2184 16.724 32.2491 16.77 32.2491 16.862C32.2491 16.954 32.2184 17 32.1571 17C31.7737 17 31.4671 16.9923 31.2371 16.977L29.8341 16.954L28.4541 16.977C28.2241 16.9923 27.9097 17 27.5111 17ZM40.1974 17.138C40.136 17.1687 40.0594 17.184 39.9674 17.184C39.6607 17.184 39.377 16.9923 39.1164 16.609C38.8557 16.2103 38.7254 15.689 38.7254 15.045V11.135C38.7254 10.1537 38.641 9.44067 38.4724 8.996C38.319 8.55133 38.0507 8.329 37.6674 8.329C36.8547 8.329 36.3947 8.95767 36.2874 10.215C36.2414 10.675 36.1034 11.0047 35.8734 11.204C35.6587 11.4033 35.352 11.503 34.9534 11.503C34.57 11.503 34.2864 11.4263 34.1024 11.273C33.9337 11.1043 33.8494 10.8897 33.8494 10.629C33.8494 10.169 34.1177 9.732 34.6544 9.318C35.191 8.88867 35.835 8.54367 36.5864 8.283C37.353 8.02233 38.0277 7.892 38.6104 7.892C39.285 7.892 39.8294 8.10667 40.2434 8.536C40.6727 8.95 40.8874 9.58633 40.8874 10.445V14.516C40.8874 14.9607 40.964 15.3057 41.1174 15.551C41.286 15.7963 41.516 15.919 41.8074 15.919C42.022 15.919 42.2444 15.8653 42.4744 15.758H42.4974C42.5587 15.758 42.597 15.7963 42.6124 15.873C42.643 15.9343 42.6277 15.9803 42.5664 16.011L40.1974 17.138ZM35.7814 17.161C35.122 17.161 34.6237 17.0153 34.2864 16.724C33.949 16.4327 33.7804 16.0263 33.7804 15.505C33.7804 15.091 33.88 14.7613 34.0794 14.516C34.2787 14.2553 34.524 14.056 34.8154 13.918C35.122 13.7647 35.5437 13.596 36.0804 13.412L36.6554 13.205L38.9554 12.354L39.0474 12.699L37.7364 13.297C37.6904 13.3123 37.537 13.3737 37.2764 13.481C37.0157 13.573 36.7857 13.734 36.5864 13.964C36.4024 14.194 36.3104 14.4623 36.3104 14.769C36.3104 15.137 36.4254 15.4283 36.6554 15.643C36.9007 15.8423 37.1767 15.942 37.4834 15.942C37.7287 15.942 37.9817 15.8577 38.2424 15.689L39.3924 14.907L39.4154 15.275L37.8054 16.425C37.4527 16.6857 37.123 16.8773 36.8164 17C36.5097 17.1073 36.1647 17.161 35.7814 17.161Z" fill="white"/>
</svg>
